<?xml version="1.0" encoding="UTF-8" standalone="no"?>
<!-- Created with Inkscape (http://www.inkscape.org/) -->

<svg
   width="275.14343"
   height="265.52258"
   version="1.1"
   viewBox="0 0 72.798367 70.25285"
   xml:space="preserve"
   id="svg2914"
   sodipodi:docname="sky-night.svg"
   xmlns:inkscape="http://www.inkscape.org/namespaces/inkscape"
   xmlns:sodipodi="http://sodipodi.sourceforge.net/DTD/sodipodi-0.dtd"
   xmlns="http://www.w3.org/2000/svg"
   xmlns:svg="http://www.w3.org/2000/svg"><sodipodi:namedview
     id="namedview2914"
     pagecolor="#505050"
     bordercolor="#eeeeee"
     borderopacity="1"
     inkscape:showpageshadow="0"
     inkscape:pageopacity="0"
     inkscape:pagecheckerboard="0"
     inkscape:deskcolor="#505050"
     inkscape:zoom="0.1233754"
     inkscape:cx="826.74503"
     inkscape:cy="1252.2756"
     inkscape:window-width="1920"
     inkscape:window-height="1123"
     inkscape:window-x="0"
     inkscape:window-y="0"
     inkscape:window-maximized="1"
     inkscape:current-layer="svg2914" /><defs
     id="defs2096"><clipPath
       id="clip-1-4-1-3"><path
         d="m 1939,577 h 421 v 406 h -421 z"
         id="path2024-6" /></clipPath><clipPath
       id="clip-2-2-7-7"><path
         d="m 2359.2,780.06 c 0,111.96 -94.051,202.71 -210.07,202.71 -55.711,0 -109.14,-21.348 -148.54,-59.371 -39.398,-38.02 -61.527,-89.578 -61.527,-143.34 0,-53.77 22.129,-105.33 61.527,-143.34 39.402,-38.02 92.832,-59.379 148.54,-59.379 116.02,0 210.07,90.762 210.07,202.72"
         id="path2025-5" /></clipPath><radialGradient
       id="radial-pattern-0-3-3"
       cx="0"
       cy="0"
       r="212.63"
       gradientTransform="matrix(1,0,0,-1,2145.8,783.46)"
       gradientUnits="userSpaceOnUse"><stop
         stop-color="#fea"
         offset="0"
         id="stop2025-5" /><stop
         stop-color="#fea"
         offset=".015625"
         id="stop2026-6" /><stop
         stop-color="#ffeeab"
         offset=".027344"
         id="stop2027-2" /><stop
         stop-color="#ffeeab"
         offset=".039062"
         id="stop2028-9" /><stop
         stop-color="#ffeeac"
         offset=".050781"
         id="stop2029-1" /><stop
         stop-color="#ffeeac"
         offset=".0625"
         id="stop2030-2" /><stop
         stop-color="#ffeead"
         offset=".074219"
         id="stop2031-7" /><stop
         stop-color="#ffeead"
         offset=".085938"
         id="stop2032-0" /><stop
         stop-color="#ffeeae"
         offset=".097656"
         id="stop2033-9" /><stop
         stop-color="#ffeeae"
         offset=".10938"
         id="stop2034-3" /><stop
         stop-color="#ffefaf"
         offset=".12109"
         id="stop2035-6" /><stop
         stop-color="#ffefaf"
         offset=".13281"
         id="stop2036-0" /><stop
         stop-color="#ffefb0"
         offset=".14453"
         id="stop2037-6" /><stop
         stop-color="#ffefb0"
         offset=".15625"
         id="stop2038-2" /><stop
         stop-color="#ffefb1"
         offset=".16797"
         id="stop2039-6" /><stop
         stop-color="#ffefb1"
         offset=".17969"
         id="stop2040-1" /><stop
         stop-color="#ffefb2"
         offset=".19141"
         id="stop2041-8" /><stop
         stop-color="#ffefb2"
         offset=".20312"
         id="stop2042-7" /><stop
         stop-color="#ffefb3"
         offset=".21484"
         id="stop2043-9" /><stop
         stop-color="#ffefb3"
         offset=".22656"
         id="stop2044-2" /><stop
         stop-color="#ffefb4"
         offset=".23828"
         id="stop2045-0" /><stop
         stop-color="#fff0b4"
         offset=".25"
         id="stop2046-2" /><stop
         stop-color="#fff0b5"
         offset=".26172"
         id="stop2047-3" /><stop
         stop-color="#fff0b6"
         offset=".28125"
         id="stop2048-7" /><stop
         stop-color="#fff0b7"
         offset=".30078"
         id="stop2049-5" /><stop
         stop-color="#fff0b8"
         offset=".32031"
         id="stop2050-9" /><stop
         stop-color="#fff0b9"
         offset=".33984"
         id="stop2051-2" /><stop
         stop-color="#fff0b9"
         offset=".35938"
         id="stop2052-2" /><stop
         stop-color="#fff1ba"
         offset=".37891"
         id="stop2053-8" /><stop
         stop-color="#fff1bb"
         offset=".39453"
         id="stop2054-9" /><stop
         stop-color="#fff1bb"
         offset=".41016"
         id="stop2055-7" /><stop
         stop-color="#fff1bc"
         offset=".42578"
         id="stop2056-3" /><stop
         stop-color="#fff1bd"
         offset=".44141"
         id="stop2057-6" /><stop
         stop-color="#fff1bd"
         offset=".45703"
         id="stop2058-1" /><stop
         stop-color="#fff1be"
         offset=".47266"
         id="stop2059-2" /><stop
         stop-color="#fff1bf"
         offset=".48828"
         id="stop2060-9" /><stop
         stop-color="#fff2bf"
         offset=".50391"
         id="stop2061-3" /><stop
         stop-color="#fff2c0"
         offset=".51562"
         id="stop2062-1" /><stop
         stop-color="#fff2c0"
         offset=".52734"
         id="stop2063-9" /><stop
         stop-color="#fff2c1"
         offset=".53906"
         id="stop2064-4" /><stop
         stop-color="#fff2c1"
         offset=".55078"
         id="stop2065-7" /><stop
         stop-color="#fff2c2"
         offset=".5625"
         id="stop2066-8" /><stop
         stop-color="#fff2c2"
         offset=".57422"
         id="stop2067-4" /><stop
         stop-color="#fff2c3"
         offset=".58594"
         id="stop2068-5" /><stop
         stop-color="#fff2c3"
         offset=".59766"
         id="stop2069-0" /><stop
         stop-color="#fff2c4"
         offset=".60938"
         id="stop2070-3" /><stop
         stop-color="#fff3c4"
         offset=".62109"
         id="stop2071-6" /><stop
         stop-color="#fff3c5"
         offset=".63281"
         id="stop2072-1" /><stop
         stop-color="#fff3c6"
         offset=".65234"
         id="stop2073-0" /><stop
         stop-color="#fff3c7"
         offset=".67188"
         id="stop2074-6" /><stop
         stop-color="#fff3c8"
         offset=".69141"
         id="stop2075-3" /><stop
         stop-color="#fff3c8"
         offset=".70703"
         id="stop2076-2" /><stop
         stop-color="#fff3c9"
         offset=".72266"
         id="stop2077-0" /><stop
         stop-color="#fff3ca"
         offset=".73828"
         id="stop2078-6" /><stop
         stop-color="#fff4ca"
         offset=".75391"
         id="stop2079-1" /><stop
         stop-color="#fff4cb"
         offset=".76562"
         id="stop2080-5" /><stop
         stop-color="#fff4cb"
         offset=".77734"
         id="stop2081-5" /><stop
         stop-color="#fff4cc"
         offset=".78906"
         id="stop2082-4" /><stop
         stop-color="#fff4cc"
         offset=".80078"
         id="stop2083-7" /><stop
         stop-color="#fff4cd"
         offset=".8125"
         id="stop2084-6" /><stop
         stop-color="#fff4cd"
         offset=".82422"
         id="stop2085-5" /><stop
         stop-color="#fff4ce"
         offset=".84375"
         id="stop2086-6" /><stop
         stop-color="#fff4cf"
         offset=".86328"
         id="stop2087-9" /><stop
         stop-color="#fff5d0"
         offset=".87891"
         id="stop2088-3" /><stop
         stop-color="#fff5d0"
         offset=".89062"
         id="stop2089-7" /><stop
         stop-color="#fff5d1"
         offset=".90234"
         id="stop2090-4" /><stop
         stop-color="#fff5d1"
         offset=".91406"
         id="stop2091-5" /><stop
         stop-color="#fff5d2"
         offset=".93359"
         id="stop2092-2" /><stop
         stop-color="#fff5d3"
         offset=".94922"
         id="stop2093-5" /><stop
         stop-color="#fff5d3"
         offset=".96094"
         id="stop2094-4" /><stop
         stop-color="#fff5d4"
         offset=".98047"
         id="stop2095-7" /><stop
         stop-color="#fff5d4"
         offset="1"
         id="stop2096-4" /></radialGradient></defs><g
     transform="matrix(0.58169817,0,0,0.58169817,-4.957232,-6.3242224)"
     id="g2914"><path
       d="m 133.67,71.258 c 0,16.016 -6.5908,31.375 -18.328,42.699 -11.735,11.323 -27.652,17.687 -44.246,17.687 -16.597,0 -32.513,-6.3634 -44.246,-17.687 C 15.113,102.633 8.522,87.273 8.522,71.258 8.522,55.243 15.1128,39.884 26.85,28.56 38.584,17.236 54.499,10.872 71.096,10.872 c 16.594,0 32.512,6.3634 44.246,17.688 11.737,11.324 18.328,26.684 18.328,42.698"
       fill="#fffcd9"
       style="stroke-width:0.26458"
       id="path2906" /><g
       transform="matrix(0.26458,0,0,0.26458,-497.53,-135.13)"
       clip-path="url(#clip-1-4-1-3)"
       id="g2908"><g
         clip-path="url(#clip-2-2-7-7)"
         id="g2907"><path
           d="M 1939.1,982.77 V 577.34 h 420.14 v 405.43 z"
           fill="url(#radial-pattern-0)"
           style="fill:url(#radial-pattern-0-3-3)"
           id="path2907" /></g></g><g
       id="g2913"><path
         d="m 37.963,28.285 c -9.4506,12.152 11.65,13.221 6.811,25.505 -3.0086,7.6336 -18.098,10.87 -20.429,14.812 -4.0876,6.9133 8.755,9.2976 8.755,15.632 0,7.7938 -8.9669,15.273 -4.8628,22.217 1.3281,2.249 33.814,10.89 35.017,9.8712 4.2685,-3.6091 3.8344,-13.139 11.674,-16.454 6.1702,-2.6117 13.51,1.7384 18.482,-2.4691 10.411,-8.8077 -4.53,-12.907 0.97049,-22.217 1.9317,-3.2649 13.926,-14.55 7.7845,-19.746 -2.6593,-2.249 -6.4265,-0.7152 -9.7286,-1.6464 -1.418,-0.39894 -1.7891,-8.0956 -2.9187,-9.0516 -3.2308,-2.7326 -11.26,-2.1187 -13.618,-4.1134 -3.7414,-3.1647 -4.5641,-11.266 -7.7814,-13.986 -5.1831,-4.3873 -27.271,-3.236 -30.155,1.6454"
         fill="#f6e9aa"
         style="stroke-width:0.26458"
         id="path2908" /><path
         d="m 64.766,74.185 c -7.8496,6.6828 9.6811,7.2709 5.6565,14.025 -2.497,4.1992 -15.033,5.9769 -16.97,8.1473 -3.3951,3.8013 7.273,5.1108 7.273,8.5959 0,4.284 -7.4476,8.3974 -4.0401,12.215 1.1028,1.2361 28.093,5.9883 29.091,5.4302 3.5481,-1.9875 3.1884,-7.2264 9.6996,-9.0496 5.1253,-1.4366 11.224,0.95601 15.354,-1.357 8.6486,-4.8442 -3.7631,-7.0983 0.80719,-12.215 1.603,-1.7973 11.569,-8.0036 6.4658,-10.861 -2.2087,-1.2361 -5.3392,-0.3917 -8.0832,-0.90537 -1.1772,-0.2191 -1.4842,-4.4504 -2.4236,-4.9764 -2.682,-1.5028 -9.3555,-1.1638 -11.313,-2.2624 -3.1088,-1.7405 -3.792,-6.1939 -6.4637,-7.6915 -4.3077,-2.4102 -22.656,-1.7777 -25.054,0.90537"
         fill="#ffeeaa"
         style="stroke-width:0.26458"
         id="path2909" /><path
         d="m 56.17,26.218 c 2.0288,9.5074 13.258,6.3345 17.685,15.084 2.7492,5.4374 -3.0458,10.268 -2.0164,13.219 1.8045,5.1728 9.6066,4.3522 13.148,8.4078 4.3542,4.9878 4.0184,11.417 9.9643,15.111 1.9254,1.1979 23.124,0.79375 23.161,-0.0796 0.13229,-3.0902 -5.4105,-9.1147 -3.3156,-12.668 1.6516,-2.7998 7.7763,-1.3581 7.9323,-4.9609 0.32248,-7.5406 -9.496,-7.4352 -11.925,-14.399 -0.85161,-2.4443 -1.1162,-11.864 -7.1148,-14.067 -2.5952,-0.95291 -3.6349,0.71624 -5.8208,0.72451 -0.93639,0.005 -5.424,-4.8555 -6.5268,-5.2596 -3.1564,-1.1596 -6.8585,0.70073 -9.1602,-0.14573 -3.6535,-1.3415 -8.5958,-6.3789 -11.74,-7.5324 -5.0612,-1.8604 -15.546,2.9125 -14.271,6.566"
         fill="#ffeeaa"
         style="stroke-width:0.26458"
         id="path2910" /><path
         d="M 65.139,112.02 C 65.941,100.236 54.357,101.299 52.664,89.837 51.6109,82.715 58.5035,78.373 58.3732,74.621 58.14376,68.0405 50.4915,67.1352 48.2932,61.465 45.5864,54.4887 47.75265,46.932 43.1628,41.111 c -1.4872,-1.8862 -21.749,-6.5133 -22.035,-5.487 -1.0129,3.6401 2.527,12.131 -0.48679,15.848 -2.373,2.929 -7.7814,-0.26149 -8.9617,3.9791 -2.4732,8.8822 6.8874,11.124 7.1975,19.982 0.10854,3.1089 -2.3451,14.359 2.7223,18.423 2.1931,1.7591 3.6618,0.0258 5.7412,0.5426 0.89194,0.22221 3.76,7.0745 4.6912,7.8238 2.6665,2.1373 6.72,0.81958 8.6651,2.3781 3.0871,2.4763 6.3397,9.649 8.9927,11.777 4.2757,3.4282 15.61,0.28526 15.449,-4.3584"
         fill="#f5e5aa"
         style="stroke-width:0.26458"
         id="path2911" /><path
         d="m 101.93,85.212 c 0.64286,-7.954 -8.6579,-7.2368 -10.018,-14.973 -0.84336,-4.8049 4.6912,-7.737 4.5858,-10.269 -0.185,-4.439 -6.3293,-5.0508 -8.0936,-8.879 -2.1725,-4.7067 -0.43408,-9.8082 -4.1196,-13.737 -1.1937,-1.2733 -17.462,-4.3956 -17.693,-3.7021 -0.81235,2.4577 2.0298,8.1866 -0.39172,10.697 -1.9048,1.974 -6.2466,-0.17673 -7.1934,2.6861 -1.9875,5.9924 5.5294,7.5034 5.7785,13.482 0.0868,2.1012 -1.8841,9.6924 2.1849,12.435 1.7622,1.1855 2.9425,0.0165 4.6095,0.36587 0.71729,0.15089 3.021,4.7749 3.7672,5.2803 2.1404,1.4428 5.395,0.55294 6.9588,1.6061 2.4794,1.6702 5.0881,6.5112 7.2182,7.9489 3.4344,2.312 12.536,0.19223 12.406,-2.9425"
         fill="#f5e5aa"
         style="stroke-width:0.26458"
         id="path2912" /><path
         d="m 29.656,56.002 c -2.8629,5.7764 3.5295,6.2839 2.064,12.123 -0.91054,3.6277 -5.4829,5.1645 -6.1888,7.0383 -1.2382,3.2856 2.6541,4.4214 2.6541,7.429 0,3.7042 -2.7171,7.2605 -1.4738,10.56 0.40203,1.0697 10.244,5.1759 10.607,4.6943 1.294,-1.7177 1.1617,-6.2466 3.5367,-7.8217 1.8686,-1.2402 4.0938,0.82579 5.5986,-1.1741 3.1543,-4.1858 -1.3725,-6.133 0.29456,-10.557 0.58394,-1.5524 4.2199,-6.9153 2.3575,-9.3865 -0.8051,-1.0666 -1.9451,-0.339 -2.9456,-0.78135 -0.43098,-0.19017 -0.54261,-3.8468 -0.88366,-4.3015 -0.97877,-1.2992 -3.4127,-1.0087 -4.1269,-1.9554 -1.1327,-1.5028 -1.3839,-5.3558 -2.3575,-6.6487 -1.5689,-2.0826 -8.261,-1.5379 -9.1364,0.78238"
         fill="#ffeeaa"
         style="stroke-width:0.26458"
         id="path2913" /></g></g></svg>
